<mxfile host="app.diagrams.net" agent="Mozilla/5.0 (Macintosh; Intel Mac OS X 10_15_7) AppleWebKit/537.36 (KHTML, like Gecko) Chrome/130.0.0.0 Safari/537.36" version="24.8.4">
  <diagram name="Page-1" id="e7e014a7-5840-1c2e-5031-d8a46d1fe8dd">
    <mxGraphModel dx="1064" dy="493" grid="1" gridSize="10" guides="1" tooltips="1" connect="1" arrows="1" fold="1" page="1" pageScale="1" pageWidth="1169" pageHeight="826" background="none" math="0" shadow="0">
      <root>
        <mxCell id="0" />
        <mxCell id="1" parent="0" />
        <mxCell id="eMrOdxCuErxxfnvqcK-5-41" value="Gov. regulator&amp;nbsp;" style="shape=umlActor;verticalLabelPosition=bottom;verticalAlign=top;html=1;" vertex="1" parent="1">
          <mxGeometry x="180" y="200" width="30" height="50" as="geometry" />
        </mxCell>
        <mxCell id="eMrOdxCuErxxfnvqcK-5-47" value="&lt;meta charset=&quot;utf-8&quot;&gt;Generate Health Reports" style="ellipse;whiteSpace=wrap;html=1;" vertex="1" parent="1">
          <mxGeometry x="350" y="230" width="195" height="40" as="geometry" />
        </mxCell>
        <mxCell id="eMrOdxCuErxxfnvqcK-5-48" value="&lt;meta charset=&quot;utf-8&quot;&gt;Generate Compliance Reports" style="ellipse;whiteSpace=wrap;html=1;" vertex="1" parent="1">
          <mxGeometry x="350" y="290" width="195" height="40" as="geometry" />
        </mxCell>
        <mxCell id="eMrOdxCuErxxfnvqcK-5-49" value="&lt;meta charset=&quot;utf-8&quot;&gt;View Usage Analytics" style="ellipse;whiteSpace=wrap;html=1;" vertex="1" parent="1">
          <mxGeometry x="350" y="430" width="205" height="40" as="geometry" />
        </mxCell>
        <mxCell id="eMrOdxCuErxxfnvqcK-5-51" value="&lt;meta charset=&quot;utf-8&quot;&gt;Compile patient privacy data" style="ellipse;whiteSpace=wrap;html=1;" vertex="1" parent="1">
          <mxGeometry x="350" y="363" width="200" height="47" as="geometry" />
        </mxCell>
        <mxCell id="eMrOdxCuErxxfnvqcK-5-53" value="Adminstrator&amp;nbsp;" style="shape=umlActor;verticalLabelPosition=bottom;verticalAlign=top;html=1;outlineConnect=0;" vertex="1" parent="1">
          <mxGeometry x="180" y="330" width="30" height="60" as="geometry" />
        </mxCell>
        <mxCell id="eMrOdxCuErxxfnvqcK-5-58" value="" style="endArrow=classic;html=1;rounded=0;exitX=0.049;exitY=0.25;exitDx=0;exitDy=0;exitPerimeter=0;" edge="1" parent="1" source="eMrOdxCuErxxfnvqcK-5-49">
          <mxGeometry width="50" height="50" relative="1" as="geometry">
            <mxPoint x="430" y="430" as="sourcePoint" />
            <mxPoint x="220" y="250" as="targetPoint" />
          </mxGeometry>
        </mxCell>
        <mxCell id="eMrOdxCuErxxfnvqcK-5-59" value="" style="endArrow=classic;html=1;rounded=0;exitX=0;exitY=0.5;exitDx=0;exitDy=0;" edge="1" parent="1" source="eMrOdxCuErxxfnvqcK-5-49">
          <mxGeometry width="50" height="50" relative="1" as="geometry">
            <mxPoint x="340" y="450" as="sourcePoint" />
            <mxPoint x="220" y="380" as="targetPoint" />
          </mxGeometry>
        </mxCell>
        <mxCell id="eMrOdxCuErxxfnvqcK-5-60" value="include&amp;nbsp;" style="endArrow=none;dashed=1;html=1;dashPattern=1 3;strokeWidth=2;rounded=0;entryX=0.5;entryY=1;entryDx=0;entryDy=0;exitX=0.5;exitY=0;exitDx=0;exitDy=0;" edge="1" parent="1" source="eMrOdxCuErxxfnvqcK-5-51" target="eMrOdxCuErxxfnvqcK-5-48">
          <mxGeometry width="50" height="50" relative="1" as="geometry">
            <mxPoint x="380" y="410" as="sourcePoint" />
            <mxPoint x="430" y="360" as="targetPoint" />
          </mxGeometry>
        </mxCell>
        <mxCell id="eMrOdxCuErxxfnvqcK-5-62" value="" style="endArrow=classic;html=1;rounded=0;exitX=0;exitY=0.5;exitDx=0;exitDy=0;" edge="1" parent="1" source="eMrOdxCuErxxfnvqcK-5-48">
          <mxGeometry width="50" height="50" relative="1" as="geometry">
            <mxPoint x="220" y="230" as="sourcePoint" />
            <mxPoint x="220" y="240" as="targetPoint" />
          </mxGeometry>
        </mxCell>
        <mxCell id="eMrOdxCuErxxfnvqcK-5-63" value="" style="endArrow=classic;html=1;rounded=0;exitX=0;exitY=0.5;exitDx=0;exitDy=0;" edge="1" parent="1" source="eMrOdxCuErxxfnvqcK-5-47">
          <mxGeometry width="50" height="50" relative="1" as="geometry">
            <mxPoint x="360" y="190" as="sourcePoint" />
            <mxPoint x="220" y="230" as="targetPoint" />
          </mxGeometry>
        </mxCell>
        <mxCell id="eMrOdxCuErxxfnvqcK-5-64" value="" style="endArrow=classic;html=1;rounded=0;exitX=0.04;exitY=0.588;exitDx=0;exitDy=0;exitPerimeter=0;" edge="1" parent="1" source="eMrOdxCuErxxfnvqcK-5-47">
          <mxGeometry width="50" height="50" relative="1" as="geometry">
            <mxPoint x="210" y="370" as="sourcePoint" />
            <mxPoint x="220" y="370" as="targetPoint" />
          </mxGeometry>
        </mxCell>
      </root>
    </mxGraphModel>
  </diagram>
</mxfile>
